
<svg width="16px" height="69px" viewBox="0 0 16 69" version="1.1" xmlns="http://www.w3.org/2000/svg" xmlns:xlink="http://www.w3.org/1999/xlink">
    <!-- Generator: Sketch 48.2 (47327) - http://www.bohemiancoding.com/sketch -->
    <desc>Created with Sketch.</desc>
    <defs>
        <path d="M13,39 L263,39 L263,306 C263,313.179702 257.179702,319 250,319 L26,319 C18.8202983,319 13,313.179702 13,306 L13,39 Z" id="path-1"></path>
        <rect id="path-2" x="63" y="64" width="39" height="230" rx="13"></rect>
        <rect id="path-3" x="119" y="64" width="39" height="230" rx="13"></rect>
        <rect id="path-4" x="175" y="64" width="39" height="230" rx="13"></rect>
        <rect id="path-5" x="0" y="32" width="276" height="21" rx="6"></rect>
        <path d="M69.4599542,27.4488766 C85.2711423,9.14962554 108.284492,1.02253036e-15 138.500003,0 C168.715513,0 191.728861,9.1496251 207.540046,27.4488753 L207.540045,27.4488766 C208.481794,28.5388209 209.000001,29.9311888 209.000001,31.37163 L209.000001,41.98846 C209.000001,44.9037625 206.636681,47.2670821 203.721379,47.2670821 C202.378978,47.2670821 201.087006,46.7556365 200.108337,45.836808 C179.572224,26.556376 159.036113,16.9161586 138.500003,16.9161586 C117.963893,16.9161586 97.4277809,26.5563762 76.8916675,45.8368114 L76.8916647,45.8368084 C74.7662806,47.8322362 71.4257025,47.7268857 69.4302747,45.6015016 C68.5114462,44.6228325 68.0000007,43.3308605 68.0000007,41.98846 L67.9999965,31.3716344 C67.9999965,29.9311916 68.5182035,28.5388221 69.4599542,27.4488766 Z" id="path-6"></path>
    </defs>
    <g id="Page-1" stroke="none" stroke-width="1" fill="none" fill-rule="evenodd">
        <g id="Rectangle-43">
            <use fill="#000000" fill-rule="evenodd" xlink:href="#path-1"></use>
            <path stroke="#000000" stroke-width="1" d="M13.5,39.5 L13.5,306 C13.5,312.903559 19.0964406,318.5 26,318.5 L250,318.5 C256.903559,318.5 262.5,312.903559 262.5,306 L262.5,39.5 L13.5,39.5 Z"></path>
        </g>
        <g id="Rectangle-44">
            <use fill="#000000" fill-rule="evenodd" xlink:href="#path-2"></use>
            <rect stroke="#FFFFFF" stroke-width="1" x="63.5" y="64.5" width="38" height="229" rx="13"></rect>
        </g>
        <g id="Rectangle-44-Copy">
            <use fill="#000000" fill-rule="evenodd" xlink:href="#path-3"></use>
            <rect stroke="#FFFFFF" stroke-width="1" x="119.5" y="64.5" width="38" height="229" rx="13"></rect>
        </g>
        <g id="Rectangle-44-Copy-2">
            <use fill="#000000" fill-rule="evenodd" xlink:href="#path-4"></use>
            <rect stroke="#FFFFFF" stroke-width="1" x="175.5" y="64.5" width="38" height="229" rx="13"></rect>
        </g>
        <g id="Rectangle-45">
            <use fill="#000000" fill-rule="evenodd" xlink:href="#path-5"></use>
            <rect stroke="#000000" stroke-width="1" x="0.5" y="32.5" width="275" height="20" rx="6"></rect>
        </g>
        <g id="Rectangle-46">
            <use fill="#000000" fill-rule="evenodd" xlink:href="#path-6"></use>
            <path stroke="#000000" stroke-width="1" d="M69.8382911,27.7757729 C68.9750196,28.7748896 68.4999965,30.0512284 68.4999965,31.3716342 L68.5000007,41.98846 C68.5000007,43.203706 68.9630012,44.3733003 69.7947968,45.2592682 C71.6012139,47.183332 74.6253672,47.2787043 76.5494342,45.4722894 C97.1716699,26.1109977 117.824139,16.4161586 138.500003,16.4161586 C159.175865,16.4161586 179.828333,26.1109964 200.45057,45.4722859 C201.336538,46.3040815 202.506132,46.7670821 203.721379,46.7670821 C206.360539,46.7670821 208.500001,44.6276201 208.500001,41.98846 L208.500001,31.37163 C208.500001,30.0512262 208.024979,28.7748885 207.161709,27.7757715 C191.452163,9.59415392 168.578337,0.5 138.500003,0.5 C108.421668,0.5 85.5478407,9.59415436 69.8382911,27.7757729 Z"></path>
        </g>
    </g>
</svg>