
<svg width="427px" height="422px" viewBox="0 0 1307 1372" version="1.1" xmlns="http://www.w3.org/2000/svg" xmlns:xlink="http://www.w3.org/1999/xlink">
    <!-- Generator: Sketch 48.2 (47327) - http://www.bohemiancoding.com/sketch -->
    <desc>Created with Sketch.</desc>
    <defs></defs>
    <g id="Page-1" stroke="none" stroke-width="1" fill="none" fill-rule="evenodd">
        <g id="Group-9-Copy" transform="translate(8.000000, 8.000000)" stroke="#F3E9DC" stroke-width="15">
            <path d="M696.442215,14.2722574 L1241.85219,337.15094 C1272.2603,355.152318 1290.91016,387.865739 1290.91016,423.202728 L1290.91016,927.850354 C1290.91016,962.94349 1272.51478,995.468515 1242.43946,1013.55176 L697.02949,1341.48796 C665.321718,1360.55275 625.678665,1360.55275 593.970892,1341.48796 L48.5609191,1013.55176 C18.4856073,995.468515 0.0902182306,962.94349 0.0902182306,927.850354 L0.0902182306,423.202728 C0.0902182306,387.865739 18.7400832,355.152318 49.1481943,337.15094 L594.558167,14.2722574 C625.973451,-4.32535879 665.026932,-4.32535879 696.442215,14.2722574 Z" id="Polygon"></path>
            <path d="M696.680633,116.79979 L1142.09061,382.784225 C1172.31259,400.831819 1190.81995,433.439988 1190.81995,468.640614 L1190.81995,882.57568 C1190.81995,917.531574 1172.56704,949.950212 1142.67894,968.077987 L697.268969,1238.22875 C665.398287,1257.55901 625.421659,1257.55901 593.550977,1238.22875 L148.141004,968.077987 C118.252909,949.950212 100,917.531574 100,882.57568 L100,468.640614 C100,433.439988 118.507354,400.831819 148.72934,382.784225 L594.139314,116.79979 C625.718633,97.9416411 665.101313,97.9416411 696.680633,116.79979 Z" id="Polygon-Copy"></path>
        </g>
    </g>
</svg>